<?xml version="1.0" encoding="UTF-8"?>
<!DOCTYPE svg PUBLIC "-//W3C//DTD SVG 1.1//EN" "http://www.w3.org/Graphics/SVG/1.1/DTD/svg11.dtd">
<svg xmlns="http://www.w3.org/2000/svg" version="1.1" width="399px" height="338px" style="shape-rendering:geometricPrecision; text-rendering:geometricPrecision; image-rendering:optimizeQuality; fill-rule:evenodd; clip-rule:evenodd" xmlns:xlink="http://www.w3.org/1999/xlink">
<g><path style="opacity:1" fill="#fefefe" d="M -0.5,-0.5 C 132.5,-0.5 265.5,-0.5 398.5,-0.5C 398.5,112.167 398.5,224.833 398.5,337.5C 265.5,337.5 132.5,337.5 -0.5,337.5C -0.5,224.833 -0.5,112.167 -0.5,-0.5 Z"/></g>
<g><path style="opacity:1" fill="#0805fd" d="M 199.5,28.5 C 200.045,34.9818 200.712,41.3151 201.5,47.5C 201.667,130.501 201.5,213.501 201,296.5C 195.329,308.952 187.163,310.785 176.5,302C 147.574,273.905 118.907,245.739 90.5,217.5C 73.5098,216.667 56.5098,216.167 39.5,216C 35.9421,214.108 33.4421,211.275 32,207.5C 31.3333,178.833 31.3333,150.167 32,121.5C 33.4421,117.725 35.9421,114.892 39.5,113C 56.9106,112.497 74.2439,111.664 91.5,110.5C 94.2046,110.763 96.8712,111.096 99.5,111.5C 99.2411,108.52 100.574,106.687 103.5,106C 102.062,105.781 100.729,105.281 99.5,104.5C 99.6667,104.167 99.8333,103.833 100,103.5C 102.288,103.263 104.788,103.263 107.5,103.5C 107.642,100.383 108.976,97.883 111.5,96C 110.5,95.6667 109.5,95.3333 108.5,95C 110.141,93.871 111.141,92.371 111.5,90.5C 133.607,68.5613 155.94,46.728 178.5,25C 184.33,20.9135 190.33,20.5802 196.5,24C 198.141,25.129 199.141,26.629 199.5,28.5 Z"/></g>
<g><path style="opacity:1" fill="#140efb" d="M 275.5,287.5 C 274.949,284.193 274.616,280.86 274.5,277.5C 274.84,275.321 275.84,273.488 277.5,272C 330.786,241.914 352.286,196.414 342,135.5C 335.879,113.059 324.379,93.8924 307.5,78C 296.974,69.9736 286.307,62.1402 275.5,54.5C 271.909,43.6729 275.576,37.0063 286.5,34.5C 321.156,49.6563 345.989,74.6563 361,109.5C 382.688,173.579 369.188,228.746 320.5,275C 311.497,281.502 302.164,287.502 292.5,293C 285.264,295.142 279.597,293.308 275.5,287.5 Z"/></g>
<g><path style="opacity:1" fill="#6b63f1" d="M 199.5,28.5 C 200.117,28.6107 200.617,28.944 201,29.5C 201.499,35.4908 201.666,41.4908 201.5,47.5C 200.712,41.3151 200.045,34.9818 199.5,28.5 Z"/></g>
<g><path style="opacity:1" fill="#fdfeed" d="M 202.5,39.5 C 203.5,39.5 204.5,39.5 205.5,39.5C 205.5,124.833 205.5,210.167 205.5,295.5C 204.5,295.5 203.5,295.5 202.5,295.5C 204.524,212.853 205.024,130.186 204,47.5C 203.667,119.5 203.333,191.5 203,263.5C 202.5,188.834 202.333,114.167 202.5,39.5 Z"/></g>
<g><path style="opacity:1" fill="#140efb" d="M 252.5,71.5 C 256.936,71.2101 261.27,71.7101 265.5,73C 305.53,97.9013 323.03,134.068 318,181.5C 311.805,211.78 295.971,235.614 270.5,253C 266.743,255.113 262.743,256.613 258.5,257.5C 247.453,256.445 243.619,250.445 247,239.5C 248.122,237.376 249.622,235.543 251.5,234C 284.047,213.729 297.214,184.562 291,146.5C 284.919,124.431 272.086,107.598 252.5,96C 243.184,87.7111 243.184,79.5444 252.5,71.5 Z"/></g>
<g><path style="opacity:1" fill="#2d22f3" d="M 111.5,90.5 C 111.141,92.371 110.141,93.871 108.5,95C 109.5,95.3333 110.5,95.6667 111.5,96C 108.976,97.883 107.642,100.383 107.5,103.5C 104.788,103.263 102.288,103.263 100,103.5C 99.8333,103.833 99.6667,104.167 99.5,104.5C 100.729,105.281 102.062,105.781 103.5,106C 100.574,106.687 99.2411,108.52 99.5,111.5C 96.8712,111.096 94.2046,110.763 91.5,110.5C 97.8604,103.473 104.527,96.8063 111.5,90.5 Z"/></g>
<g><path style="opacity:1" fill="#1811fa" d="M 221.5,113.5 C 240.291,116.493 254.124,126.493 263,143.5C 272.225,174.516 262.725,197.683 234.5,213C 219.796,218.752 212.296,213.918 212,198.5C 213.308,196.359 214.808,194.359 216.5,192.5C 222.604,189.91 228.27,186.577 233.5,182.5C 243.811,168.365 242.645,155.365 230,143.5C 225.47,141.486 220.97,139.319 216.5,137C 211.713,130.487 211.379,123.821 215.5,117C 217.432,115.541 219.432,114.375 221.5,113.5 Z"/></g>
<g><path style="opacity:1" fill="#6f6df5" d="M 274.5,277.5 C 274.616,280.86 274.949,284.193 275.5,287.5C 273.469,284.292 273.135,280.959 274.5,277.5 Z"/></g>
</svg>
