<?xml version="1.0" encoding="UTF-8"?>
<!DOCTYPE svg PUBLIC "-//W3C//DTD SVG 1.1//EN" "http://www.w3.org/Graphics/SVG/1.1/DTD/svg11.dtd">
<svg xmlns="http://www.w3.org/2000/svg" version="1.1" width="499px" height="499px" style="shape-rendering:geometricPrecision; text-rendering:geometricPrecision; image-rendering:optimizeQuality; fill-rule:evenodd; clip-rule:evenodd" xmlns:xlink="http://www.w3.org/1999/xlink">
<g><path style="opacity:1" fill="#fefefe" d="M -0.5,-0.5 C 165.833,-0.5 332.167,-0.5 498.5,-0.5C 498.5,165.833 498.5,332.167 498.5,498.5C 332.167,498.5 165.833,498.5 -0.5,498.5C -0.5,332.167 -0.5,165.833 -0.5,-0.5 Z"/></g>
<g><path style="opacity:1" fill="#b9c8d9" d="M 57.5,106.5 C 53.0685,106.231 48.7352,106.564 44.5,107.5C 44.1667,107.5 43.8333,107.5 43.5,107.5C 43.6107,106.883 43.944,106.383 44.5,106C 49.0204,105.186 53.3537,105.353 57.5,106.5 Z"/></g>
<g><path style="opacity:1" fill="#4271a8" d="M 57.5,106.5 C 57.9731,107.906 58.9731,108.573 60.5,108.5C 61.1667,109.833 62.1667,110.833 63.5,111.5C 63.5,112.167 63.5,112.833 63.5,113.5C 61.3956,112.241 59.3956,110.741 57.5,109C 52.7804,108.283 48.1138,108.45 43.5,109.5C 43.8333,108.833 44.1667,108.167 44.5,107.5C 48.7352,106.564 53.0685,106.231 57.5,106.5 Z"/></g>
<g><path style="opacity:1" fill="#98acc7" d="M 57.5,106.5 C 59.0269,106.427 60.0269,107.094 60.5,108.5C 58.9731,108.573 57.9731,107.906 57.5,106.5 Z"/></g>
<g><path style="opacity:1" fill="#a7b9d2" d="M 60.5,108.5 C 62.5,108.5 63.5,109.5 63.5,111.5C 62.1667,110.833 61.1667,109.833 60.5,108.5 Z"/></g>
<g><path style="opacity:1" fill="#b0c3d9" d="M 63.5,111.5 C 64.9063,111.973 65.573,112.973 65.5,114.5C 65.1667,114.5 64.8333,114.5 64.5,114.5C 64.5,113.833 64.1667,113.5 63.5,113.5C 63.5,112.833 63.5,112.167 63.5,111.5 Z"/></g>
<g><path style="opacity:1" fill="#bac9dc" d="M 191.5,167.5 C 184.058,167.222 176.724,167.888 169.5,169.5C 168.833,169.5 168.167,169.5 167.5,169.5C 169.811,167.932 172.478,167.098 175.5,167C 181.016,166.183 186.35,166.349 191.5,167.5 Z"/></g>
<g><path style="opacity:1" fill="#5179ac" d="M 191.5,167.5 C 192.568,168.434 193.901,168.768 195.5,168.5C 198.345,169.344 201.345,170.01 204.5,170.5C 206.515,171.924 208.848,172.59 211.5,172.5C 211.5,172.833 211.5,173.167 211.5,173.5C 204.985,172.045 198.319,170.879 191.5,170C 184.139,169.317 176.805,169.483 169.5,170.5C 169.5,170.167 169.5,169.833 169.5,169.5C 176.724,167.888 184.058,167.222 191.5,167.5 Z"/></g>
<g><path style="opacity:1" fill="#c1d0e3" d="M 195.5,168.5 C 199.489,168.116 203.155,168.783 206.5,170.5C 205.833,170.5 205.167,170.5 204.5,170.5C 201.345,170.01 198.345,169.344 195.5,168.5 Z"/></g>
<g><path style="opacity:1" fill="#7592b9" d="M 167.5,169.5 C 168.167,169.5 168.833,169.5 169.5,169.5C 169.5,169.833 169.5,170.167 169.5,170.5C 166.426,170.873 163.426,171.539 160.5,172.5C 160.167,172.5 159.833,172.5 159.5,172.5C 161.792,170.733 164.458,169.733 167.5,169.5 Z"/></g>
<g><path style="opacity:1" fill="#a8bdd5" d="M 204.5,170.5 C 205.167,170.5 205.833,170.5 206.5,170.5C 208.403,170.796 210.07,171.463 211.5,172.5C 208.848,172.59 206.515,171.924 204.5,170.5 Z"/></g>
<g><path style="opacity:1" fill="#b9c9df" d="M 211.5,173.5 C 211.5,173.167 211.5,172.833 211.5,172.5C 215.748,172.624 219.082,174.29 221.5,177.5C 218.167,176.167 214.833,174.833 211.5,173.5 Z"/></g>
<g><path style="opacity:1" fill="#aac0dc" d="M 156.5,172.5 C 156.027,173.906 155.027,174.573 153.5,174.5C 153.973,173.094 154.973,172.427 156.5,172.5 Z"/></g>
<g><path style="opacity:1" fill="#9fb6d4" d="M 151.5,175.5 C 149.967,177.245 147.967,178.245 145.5,178.5C 147.033,176.755 149.033,175.755 151.5,175.5 Z"/></g>
<g><path style="opacity:1" fill="#bdc9dd" d="M 221.5,177.5 C 223.483,177.157 224.817,177.824 225.5,179.5C 224.833,179.5 224.167,179.5 223.5,179.5C 222.833,178.833 222.167,178.167 221.5,177.5 Z"/></g>
<g><path style="opacity:1" fill="#82a2c3" d="M 145.5,178.5 C 145.5,179.833 144.833,180.5 143.5,180.5C 143.5,179.167 144.167,178.5 145.5,178.5 Z"/></g>
<g><path style="opacity:1" fill="#3b6ca5" d="M 156.5,172.5 C 157.5,172.5 158.5,172.5 159.5,172.5C 159.833,172.5 160.167,172.5 160.5,172.5C 159.313,174.975 157.313,175.975 154.5,175.5C 154.5,176.5 154.5,177.5 154.5,178.5C 150.383,180 146.049,181.333 141.5,182.5C 141.5,182.167 141.5,181.833 141.5,181.5C 141.842,180.662 142.508,180.328 143.5,180.5C 144.833,180.5 145.5,179.833 145.5,178.5C 147.967,178.245 149.967,177.245 151.5,175.5C 152.492,175.672 153.158,175.338 153.5,174.5C 155.027,174.573 156.027,173.906 156.5,172.5 Z"/></g>
<g><path style="opacity:1" fill="#92acca" d="M 225.5,179.5 C 227.027,179.427 228.027,180.094 228.5,181.5C 226.973,181.573 225.973,180.906 225.5,179.5 Z"/></g>
<g><path style="opacity:1" fill="#8ca7c2" d="M 228.5,181.5 C 230.027,181.427 231.027,182.094 231.5,183.5C 229.973,183.573 228.973,182.906 228.5,181.5 Z"/></g>
<g><path style="opacity:1" fill="#3569a5" d="M 223.5,179.5 C 224.167,179.5 224.833,179.5 225.5,179.5C 225.973,180.906 226.973,181.573 228.5,181.5C 228.973,182.906 229.973,183.573 231.5,183.5C 231.973,184.906 232.973,185.573 234.5,185.5C 234.842,186.338 235.508,186.672 236.5,186.5C 236.973,187.906 237.973,188.573 239.5,188.5C 239.833,189.167 240.167,189.833 240.5,190.5C 236.192,188.095 231.525,186.262 226.5,185C 225.361,183.22 224.361,181.386 223.5,179.5 Z"/></g>
<g><path style="opacity:1" fill="#8ca9c7" d="M 231.5,183.5 C 233.027,183.427 234.027,184.094 234.5,185.5C 232.973,185.573 231.973,184.906 231.5,183.5 Z"/></g>
<g><path style="opacity:1" fill="#89a5c6" d="M 141.5,181.5 C 141.5,181.833 141.5,182.167 141.5,182.5C 138.94,184.273 136.607,186.273 134.5,188.5C 130.878,190.787 127.545,193.453 124.5,196.5C 125.543,193.944 127.21,191.777 129.5,190C 133.12,186.533 137.12,183.7 141.5,181.5 Z"/></g>
<g><path style="opacity:1" fill="#b8cbe0" d="M 236.5,186.5 C 238.027,186.427 239.027,187.094 239.5,188.5C 237.973,188.573 236.973,187.906 236.5,186.5 Z"/></g>
<g><path style="opacity:1" fill="#b9cade" d="M 239.5,188.5 C 242.764,190.094 245.431,192.427 247.5,195.5C 244.907,194.246 242.573,192.58 240.5,190.5C 240.167,189.833 239.833,189.167 239.5,188.5 Z"/></g>
<g><path style="opacity:1" fill="#2660a9" d="M 135.5,224.5 C 133.213,223.645 130.88,223.478 128.5,224C 129.43,222.806 130.097,221.473 130.5,220C 128.954,218.527 127.954,216.694 127.5,214.5C 128.871,212.319 129.871,209.986 130.5,207.5C 129.5,207.5 128.5,207.5 127.5,207.5C 127.516,203.94 127.016,200.607 126,197.5C 126.667,196.833 127.333,196.167 128,195.5C 128.196,197.286 129.029,198.619 130.5,199.5C 131.768,197.696 132.435,195.696 132.5,193.5C 135.718,193.349 136.051,192.516 133.5,191C 134.252,190.329 134.586,189.496 134.5,188.5C 135.695,188.322 136.862,187.989 138,187.5C 139.274,188.535 140.44,189.702 141.5,191C 140.387,195.733 139.72,200.566 139.5,205.5C 140.5,205.5 141.5,205.5 142.5,205.5C 143.291,212.767 140.958,214.434 135.5,210.5C 135.977,209.522 136.643,208.689 137.5,208C 135.741,207.202 134.074,207.369 132.5,208.5C 132.707,211.396 132.873,214.396 133,217.5C 135.137,219.321 135.97,221.654 135.5,224.5 Z"/></g>
<g><path style="opacity:1" fill="#becfe2" d="M 247.5,195.5 C 251.167,197.167 253.833,199.833 255.5,203.5C 253.5,201.833 251.5,200.167 249.5,198.5C 248.833,197.5 248.167,196.5 247.5,195.5 Z"/></g>
<g><path style="opacity:1" fill="#4b75a5" d="M 249.5,198.5 C 251.5,200.167 253.5,201.833 255.5,203.5C 255.5,203.833 255.5,204.167 255.5,204.5C 252.167,203.833 250.167,201.833 249.5,198.5 Z"/></g>
<g><path style="opacity:1" fill="#88a2c4" d="M 123.5,197.5 C 122.4,198.605 121.733,199.938 121.5,201.5C 119.167,203.5 116.833,205.5 114.5,207.5C 116.423,204.397 118.59,201.397 121,198.5C 121.671,197.748 122.504,197.414 123.5,197.5 Z"/></g>
<g><path style="opacity:1" fill="#2661a8" d="M 211.5,173.5 C 214.833,174.833 218.167,176.167 221.5,177.5C 222.167,178.167 222.833,178.833 223.5,179.5C 224.361,181.386 225.361,183.22 226.5,185C 231.525,186.262 236.192,188.095 240.5,190.5C 242.573,192.58 244.907,194.246 247.5,195.5C 248.167,196.5 248.833,197.5 249.5,198.5C 250.167,201.833 252.167,203.833 255.5,204.5C 256.833,205.5 258.167,206.5 259.5,207.5C 259.738,209.404 260.738,210.738 262.5,211.5C 263.419,214.089 265.086,216.089 267.5,217.5C 268.08,219.749 269.413,221.415 271.5,222.5C 271.5,222.833 271.5,223.167 271.5,223.5C 272.08,225.749 273.413,227.415 275.5,228.5C 276.5,230.167 277.833,231.5 279.5,232.5C 279.427,234.027 280.094,235.027 281.5,235.5C 281.738,237.404 282.738,238.738 284.5,239.5C 284.738,241.404 285.738,242.738 287.5,243.5C 288.754,246.093 290.42,248.427 292.5,250.5C 292.52,252.143 291.853,253.476 290.5,254.5C 293.923,255.099 296.923,256.432 299.5,258.5C 294.552,259.451 294.219,261.285 298.5,264C 298.167,264.333 297.833,264.667 297.5,265C 297.899,269.425 300.066,270.925 304,269.5C 306.67,270.224 308.17,271.891 308.5,274.5C 309.5,274.5 310.5,274.5 311.5,274.5C 311.5,275.5 311.5,276.5 311.5,277.5C 313.722,278.386 315.888,278.386 318,277.5C 319.365,278.456 320.865,279.122 322.5,279.5C 325.154,278.732 327.821,278.566 330.5,279C 329.376,279.249 328.376,279.749 327.5,280.5C 336.125,282.282 336.791,285.782 329.5,291C 327.285,292.044 324.952,292.71 322.5,293C 323.141,295.13 324.474,296.63 326.5,297.5C 329.563,295.975 332.23,293.975 334.5,291.5C 335.429,290.311 335.762,288.978 335.5,287.5C 339.311,287.404 339.311,286.738 335.5,285.5C 341.054,284.194 346.554,284.194 352,285.5C 355.376,284.773 358.709,283.773 362,282.5C 362.879,284.02 364.712,285.02 367.5,285.5C 367.192,287.924 367.526,290.257 368.5,292.5C 370.357,289.494 372.857,288.828 376,290.5C 377.11,288.963 378.61,288.297 380.5,288.5C 380.167,290.5 379.833,292.5 379.5,294.5C 381.288,294.215 382.955,294.548 384.5,295.5C 384.137,296.183 383.804,296.85 383.5,297.5C 381.651,298.593 379.984,299.926 378.5,301.5C 377.833,301.5 377.167,301.5 376.5,301.5C 373.918,301.025 371.918,301.692 370.5,303.5C 368.565,304.15 366.565,304.483 364.5,304.5C 353.516,305.249 342.516,305.583 331.5,305.5C 329.562,303.837 327.228,303.171 324.5,303.5C 323.833,303.5 323.167,303.5 322.5,303.5C 322.027,302.094 321.027,301.427 319.5,301.5C 318.105,299.621 316.105,298.621 313.5,298.5C 312.833,298.5 312.167,298.5 311.5,298.5C 310.833,298.5 310.167,298.5 309.5,298.5C 309.5,297.833 309.5,297.167 309.5,296.5C 309.719,295.325 309.386,294.325 308.5,293.5C 305.856,292.705 303.189,292.038 300.5,291.5C 299.415,289.413 297.749,288.08 295.5,287.5C 294.508,287.672 293.842,287.338 293.5,286.5C 292.167,284.833 290.833,283.167 289.5,281.5C 288.172,280.493 287.172,279.16 286.5,277.5C 287.624,273.395 286.124,270.395 282,268.5C 281.517,267.552 281.351,266.552 281.5,265.5C 279.8,265.374 278.3,264.707 277,263.5C 276.5,263.833 276,264.167 275.5,264.5C 276.705,265.995 276.705,267.328 275.5,268.5C 274.5,268.167 273.833,267.5 273.5,266.5C 272.213,264.195 270.88,261.862 269.5,259.5C 268.476,258.147 267.143,257.48 265.5,257.5C 265.216,255.123 265.216,252.956 265.5,251C 264.643,250.311 263.977,249.478 263.5,248.5C 265.423,247.692 267.423,247.192 269.5,247C 268.217,242.88 265.551,240.38 261.5,239.5C 261.963,242.482 262.296,245.482 262.5,248.5C 261.127,248.657 259.793,248.49 258.5,248C 259.694,245.342 258.694,244.176 255.5,244.5C 255.343,243.127 255.51,241.793 256,240.5C 257.297,241.784 258.464,241.617 259.5,240C 257.559,239.257 255.726,239.424 254,240.5C 252.67,239.418 251.17,238.751 249.5,238.5C 249.5,238.167 249.5,237.833 249.5,237.5C 249.579,236.07 249.246,234.736 248.5,233.5C 246.71,231.039 244.377,229.373 241.5,228.5C 240.833,228.167 240.167,227.833 239.5,227.5C 238.833,226.5 238.167,225.5 237.5,224.5C 237.167,222.167 235.833,220.833 233.5,220.5C 233.325,218.156 232.158,216.489 230,215.5C 229.51,214.207 229.343,212.873 229.5,211.5C 228.167,211.5 226.833,211.5 225.5,211.5C 224.833,211.5 224.167,211.5 223.5,211.5C 219.524,205.846 214.19,202.18 207.5,200.5C 206.508,200.672 205.842,200.338 205.5,199.5C 203.898,197.926 201.898,197.259 199.5,197.5C 197.162,195.96 194.495,195.294 191.5,195.5C 186.015,194.348 180.349,194.182 174.5,195C 173.584,195.278 172.918,195.778 172.5,196.5C 170.973,196.427 169.973,197.094 169.5,198.5C 164.284,198.746 159.95,200.746 156.5,204.5C 154.205,205.136 152.539,206.469 151.5,208.5C 149.736,209.326 148.402,210.659 147.5,212.5C 145.596,212.738 144.262,213.738 143.5,215.5C 141.738,216.262 140.738,217.596 140.5,219.5C 138.738,220.262 137.738,221.596 137.5,223.5C 136.833,223.833 136.167,224.167 135.5,224.5C 135.97,221.654 135.137,219.321 133,217.5C 132.873,214.396 132.707,211.396 132.5,208.5C 134.074,207.369 135.741,207.202 137.5,208C 136.643,208.689 135.977,209.522 135.5,210.5C 140.958,214.434 143.291,212.767 142.5,205.5C 141.5,205.5 140.5,205.5 139.5,205.5C 139.72,200.566 140.387,195.733 141.5,191C 140.44,189.702 139.274,188.535 138,187.5C 136.862,187.989 135.695,188.322 134.5,188.5C 136.607,186.273 138.94,184.273 141.5,182.5C 146.049,181.333 150.383,180 154.5,178.5C 154.5,177.5 154.5,176.5 154.5,175.5C 157.313,175.975 159.313,174.975 160.5,172.5C 163.426,171.539 166.426,170.873 169.5,170.5C 176.805,169.483 184.139,169.317 191.5,170C 198.319,170.879 204.985,172.045 211.5,173.5 Z"/></g>
<g><path style="opacity:1" fill="#6387b6" d="M 207.5,200.5 C 214.19,202.18 219.524,205.846 223.5,211.5C 218.638,208.373 213.638,205.373 208.5,202.5C 208.167,201.833 207.833,201.167 207.5,200.5 Z"/></g>
<g><path style="opacity:1" fill="#cad9e9" d="M 203.5,199.5 C 204.167,199.5 204.833,199.5 205.5,199.5C 205.842,200.338 206.508,200.672 207.5,200.5C 207.833,201.167 208.167,201.833 208.5,202.5C 205.966,202.741 204.3,201.741 203.5,199.5 Z"/></g>
<g><path style="opacity:1" fill="#a2b6d2" d="M 169.5,198.5 C 165.415,200.888 161.082,202.888 156.5,204.5C 159.95,200.746 164.284,198.746 169.5,198.5 Z"/></g>
<g><path style="opacity:1" fill="#6c8ab6" d="M 199.5,197.5 C 201.898,197.259 203.898,197.926 205.5,199.5C 204.833,199.5 204.167,199.5 203.5,199.5C 201.847,199.34 200.514,198.674 199.5,197.5 Z"/></g>
<g><path style="opacity:1" fill="#7a98c0" d="M 191.5,195.5 C 194.495,195.294 197.162,195.96 199.5,197.5C 196.505,197.706 193.838,197.04 191.5,195.5 Z"/></g>
<g><path style="opacity:1" fill="#abbddb" d="M 172.5,196.5 C 173.5,196.5 174.5,196.5 175.5,196.5C 173.698,197.458 171.698,198.125 169.5,198.5C 169.973,197.094 170.973,196.427 172.5,196.5 Z"/></g>
<g><path style="opacity:1" fill="#678bb7" d="M 191.5,195.5 C 185.974,195.179 180.64,195.512 175.5,196.5C 174.5,196.5 173.5,196.5 172.5,196.5C 172.918,195.778 173.584,195.278 174.5,195C 180.349,194.182 186.015,194.348 191.5,195.5 Z"/></g>
<g><path style="opacity:1" fill="#89a5c6" d="M 156.5,204.5 C 155.833,205.5 155.167,206.5 154.5,207.5C 153.391,207.557 152.391,207.89 151.5,208.5C 152.539,206.469 154.205,205.136 156.5,204.5 Z"/></g>
<g><path style="opacity:1" fill="#8ca6c6" d="M 114.5,207.5 C 114.262,209.404 113.262,210.738 111.5,211.5C 111.738,209.596 112.738,208.262 114.5,207.5 Z"/></g>
<g><path style="opacity:1" fill="#92a9ca" d="M 259.5,207.5 C 261.262,208.262 262.262,209.596 262.5,211.5C 260.738,210.738 259.738,209.404 259.5,207.5 Z"/></g>
<g><path style="opacity:1" fill="#bbcddf" d="M 154.5,207.5 C 152.263,209.324 149.929,210.991 147.5,212.5C 148.402,210.659 149.736,209.326 151.5,208.5C 152.391,207.89 153.391,207.557 154.5,207.5 Z"/></g>
<g><path style="opacity:1" fill="#8aa2c2" d="M 111.5,211.5 C 111.262,213.404 110.262,214.738 108.5,215.5C 108.738,213.596 109.738,212.262 111.5,211.5 Z"/></g>
<g><path style="opacity:1" fill="#7090b8" d="M 223.5,211.5 C 224.167,211.5 224.833,211.5 225.5,211.5C 226.5,212.833 227.5,214.167 228.5,215.5C 226.251,214.92 224.585,213.587 223.5,211.5 Z"/></g>
<g><path style="opacity:1" fill="#7798bc" d="M 262.5,211.5 C 264.914,212.911 266.581,214.911 267.5,217.5C 265.086,216.089 263.419,214.089 262.5,211.5 Z"/></g>
<g><path style="opacity:1" fill="#3d6ea6" d="M 225.5,211.5 C 226.833,211.5 228.167,211.5 229.5,211.5C 229.343,212.873 229.51,214.207 230,215.5C 232.158,216.489 233.325,218.156 233.5,220.5C 232.167,219.5 230.833,218.5 229.5,217.5C 229.167,216.833 228.833,216.167 228.5,215.5C 227.5,214.167 226.5,212.833 225.5,211.5 Z"/></g>
<g><path style="opacity:1" fill="#2a63a7" d="M 134.5,188.5 C 134.586,189.496 134.252,190.329 133.5,191C 136.051,192.516 135.718,193.349 132.5,193.5C 132.435,195.696 131.768,197.696 130.5,199.5C 129.029,198.619 128.196,197.286 128,195.5C 127.333,196.167 126.667,196.833 126,197.5C 127.016,200.607 127.516,203.94 127.5,207.5C 128.5,207.5 129.5,207.5 130.5,207.5C 129.871,209.986 128.871,212.319 127.5,214.5C 127.954,216.694 128.954,218.527 130.5,220C 130.097,221.473 129.43,222.806 128.5,224C 130.88,223.478 133.213,223.645 135.5,224.5C 134.214,227.117 132.547,229.45 130.5,231.5C 130.725,229.284 129.892,227.617 128,226.5C 127.667,223.833 127.333,221.167 127,218.5C 125.117,219.653 124.284,221.319 124.5,223.5C 123.5,223.5 122.5,223.5 121.5,223.5C 121.336,220.813 121.503,218.146 122,215.5C 126.639,210.837 127.139,205.837 123.5,200.5C 122.817,200.863 122.15,201.196 121.5,201.5C 121.733,199.938 122.4,198.605 123.5,197.5C 123.5,196.833 123.833,196.5 124.5,196.5C 127.545,193.453 130.878,190.787 134.5,188.5 Z"/></g>
<g><path style="opacity:1" fill="#97afcd" d="M 147.5,212.5 C 146.738,214.262 145.404,215.262 143.5,215.5C 144.262,213.738 145.596,212.738 147.5,212.5 Z"/></g>
<g><path style="opacity:1" fill="#94adcb" d="M 108.5,215.5 C 108.573,217.027 107.906,218.027 106.5,218.5C 106.427,216.973 107.094,215.973 108.5,215.5 Z"/></g>
<g><path style="opacity:1" fill="#8faac8" d="M 143.5,215.5 C 143.262,217.404 142.262,218.738 140.5,219.5C 140.738,217.596 141.738,216.262 143.5,215.5 Z"/></g>
<g><path style="opacity:1" fill="#97b0cb" d="M 106.5,218.5 C 106.573,220.027 105.906,221.027 104.5,221.5C 104.427,219.973 105.094,218.973 106.5,218.5 Z"/></g>
<g><path style="opacity:1" fill="#d2dfec" d="M 229.5,217.5 C 230.833,218.5 232.167,219.5 233.5,220.5C 233.833,221.167 234.167,221.833 234.5,222.5C 231.5,222.167 229.833,220.5 229.5,217.5 Z"/></g>
<g><path style="opacity:1" fill="#6285ae" d="M 233.5,220.5 C 235.833,220.833 237.167,222.167 237.5,224.5C 236.5,223.833 235.5,223.167 234.5,222.5C 234.167,221.833 233.833,221.167 233.5,220.5 Z"/></g>
<g><path style="opacity:1" fill="#7895bb" d="M 267.5,217.5 C 269.587,218.585 270.92,220.251 271.5,222.5C 269.413,221.415 268.08,219.749 267.5,217.5 Z"/></g>
<g><path style="opacity:1" fill="#acc0d6" d="M 140.5,219.5 C 140.262,221.404 139.262,222.738 137.5,223.5C 137.738,221.596 138.738,220.262 140.5,219.5 Z"/></g>
<g><path style="opacity:1" fill="#cbd7e7" d="M 234.5,222.5 C 235.5,223.167 236.5,223.833 237.5,224.5C 238.167,225.5 238.833,226.5 239.5,227.5C 236.833,226.833 235.167,225.167 234.5,222.5 Z"/></g>
<g><path style="opacity:1" fill="#d3dae5" d="M 271.5,223.5 C 271.5,223.167 271.5,222.833 271.5,222.5C 274.179,222.525 275.512,223.858 275.5,226.5C 274.167,225.5 272.833,224.5 271.5,223.5 Z"/></g>
<g><path style="opacity:1" fill="#b0c0d5" d="M 415.5,224.5 C 418.64,223.359 421.973,223.192 425.5,224C 427.32,224.2 428.653,225.034 429.5,226.5C 428.833,226.5 428.167,226.5 427.5,226.5C 423.817,224.75 419.817,224.083 415.5,224.5 Z"/></g>
<g><path style="opacity:1" fill="#4f7aae" d="M 271.5,223.5 C 272.833,224.5 274.167,225.5 275.5,226.5C 275.5,226.833 275.5,227.167 275.5,227.5C 275.5,227.833 275.5,228.167 275.5,228.5C 273.413,227.415 272.08,225.749 271.5,223.5 Z"/></g>
<g><path style="opacity:1" fill="#94a9c7" d="M 103.5,223.5 C 103.573,225.027 102.906,226.027 101.5,226.5C 101.427,224.973 102.094,223.973 103.5,223.5 Z"/></g>
<g><path style="opacity:1" fill="#2761a8" d="M 130.5,231.5 C 129.504,231.586 128.671,231.252 128,230.5C 127.506,232.134 127.34,233.801 127.5,235.5C 127.5,236.167 127.5,236.833 127.5,237.5C 126.662,237.842 126.328,238.508 126.5,239.5C 125.5,239.833 124.833,240.5 124.5,241.5C 123.094,241.973 122.427,242.973 122.5,244.5C 122.5,245.167 122.167,245.5 121.5,245.5C 120.5,245.5 119.5,245.5 118.5,245.5C 118.567,246.959 118.234,248.292 117.5,249.5C 117.167,249.5 116.833,249.5 116.5,249.5C 113.482,249.665 110.482,249.498 107.5,249C 105.826,246.496 103.493,244.996 100.5,244.5C 99.8333,244.167 99.1667,243.833 98.5,243.5C 98.1832,239.298 98.5166,235.298 99.5,231.5C 100.906,231.027 101.573,230.027 101.5,228.5C 101.5,227.833 101.5,227.167 101.5,226.5C 102.906,226.027 103.573,225.027 103.5,223.5C 104.338,223.158 104.672,222.492 104.5,221.5C 105.906,221.027 106.573,220.027 106.5,218.5C 107.906,218.027 108.573,217.027 108.5,215.5C 110.262,214.738 111.262,213.404 111.5,211.5C 113.262,210.738 114.262,209.404 114.5,207.5C 116.833,205.5 119.167,203.5 121.5,201.5C 122.15,201.196 122.817,200.863 123.5,200.5C 127.139,205.837 126.639,210.837 122,215.5C 121.503,218.146 121.336,220.813 121.5,223.5C 122.5,223.5 123.5,223.5 124.5,223.5C 124.284,221.319 125.117,219.653 127,218.5C 127.333,221.167 127.667,223.833 128,226.5C 129.892,227.617 130.725,229.284 130.5,231.5 Z"/></g>
<g><path style="opacity:1" fill="#afc6db" d="M 101.5,226.5 C 101.5,227.167 101.5,227.833 101.5,228.5C 100.833,228.833 100.167,229.167 99.5,229.5C 99.427,227.973 100.094,226.973 101.5,226.5 Z"/></g>
<g><path style="opacity:1" fill="#b5c5de" d="M 239.5,227.5 C 240.167,227.833 240.833,228.167 241.5,228.5C 243.252,230.246 244.585,232.246 245.5,234.5C 242.757,232.761 240.757,230.427 239.5,227.5 Z"/></g>
<g><path style="opacity:1" fill="#6e8fb7" d="M 415.5,224.5 C 419.817,224.083 423.817,224.75 427.5,226.5C 423.192,225.632 418.859,225.466 414.5,226C 411.876,228.449 409.543,230.949 407.5,233.5C 408.768,229.233 411.435,226.233 415.5,224.5 Z"/></g>
<g><path style="opacity:1" fill="#6087b0" d="M 101.5,228.5 C 101.573,230.027 100.906,231.027 99.5,231.5C 99.5,230.833 99.5,230.167 99.5,229.5C 100.167,229.167 100.833,228.833 101.5,228.5 Z"/></g>
<g><path style="opacity:1" fill="#8ba4c5" d="M 275.5,227.5 C 277.587,228.585 278.92,230.251 279.5,232.5C 277.833,231.5 276.5,230.167 275.5,228.5C 275.5,228.167 275.5,227.833 275.5,227.5 Z"/></g>
<g><path style="opacity:1" fill="#8ca7c6" d="M 431.5,228.5 C 432.906,228.973 433.573,229.973 433.5,231.5C 432.833,231.167 432.167,230.833 431.5,230.5C 431.5,229.833 431.5,229.167 431.5,228.5 Z"/></g>
<g><path style="opacity:1" fill="#4a76ac" d="M 130.5,231.5 C 130.5,232.167 130.5,232.833 130.5,233.5C 129.662,233.842 129.328,234.508 129.5,235.5C 128.833,235.5 128.167,235.5 127.5,235.5C 127.34,233.801 127.506,232.134 128,230.5C 128.671,231.252 129.504,231.586 130.5,231.5 Z"/></g>
<g><path style="opacity:1" fill="#d0dfec" d="M 137.5,223.5 C 137.229,225.312 136.562,226.978 135.5,228.5C 133.667,230.149 132,231.816 130.5,233.5C 130.5,232.833 130.5,232.167 130.5,231.5C 132.547,229.45 134.214,227.117 135.5,224.5C 136.167,224.167 136.833,223.833 137.5,223.5 Z"/></g>
<g><path style="opacity:1" fill="#3f6fa8" d="M 241.5,228.5 C 244.377,229.373 246.71,231.039 248.5,233.5C 249.246,234.736 249.579,236.07 249.5,237.5C 248.167,236.5 246.833,235.5 245.5,234.5C 244.585,232.246 243.252,230.246 241.5,228.5 Z"/></g>
<g><path style="opacity:1" fill="#789bbb" d="M 279.5,232.5 C 280.906,232.973 281.573,233.973 281.5,235.5C 280.094,235.027 279.427,234.027 279.5,232.5 Z"/></g>
<g><path style="opacity:1" fill="#bbcae1" d="M 407.5,233.5 C 407.068,234.71 406.401,235.71 405.5,236.5C 405.285,234.821 405.952,233.821 407.5,233.5 Z"/></g>
<g><path style="opacity:1" fill="#bbcadf" d="M 245.5,234.5 C 246.833,235.5 248.167,236.5 249.5,237.5C 249.5,237.833 249.5,238.167 249.5,238.5C 249.5,238.833 249.5,239.167 249.5,239.5C 247.413,238.415 246.08,236.749 245.5,234.5 Z"/></g>
<g><path style="opacity:1" fill="#c5d3e4" d="M 127.5,235.5 C 128.167,235.5 128.833,235.5 129.5,235.5C 129.5,236.833 128.833,237.5 127.5,237.5C 127.5,236.833 127.5,236.167 127.5,235.5 Z"/></g>
<g><path style="opacity:1" fill="#718fb5" d="M 281.5,235.5 C 283.262,236.262 284.262,237.596 284.5,239.5C 282.738,238.738 281.738,237.404 281.5,235.5 Z"/></g>
<g><path style="opacity:1" fill="#a8bad5" d="M 405.5,236.5 C 405.573,238.027 404.906,239.027 403.5,239.5C 403.427,237.973 404.094,236.973 405.5,236.5 Z"/></g>
<g><path style="opacity:1" fill="#2a63a3" d="M 41.5,111.5 C 41.3334,140.835 41.5,170.169 42,199.5C 42.3333,171.167 42.6667,142.833 43,114.5C 44.1622,135.687 44.6622,157.021 44.5,178.5C 44.076,205.211 44.076,231.877 44.5,258.5C 44.1667,262.833 43.8333,267.167 43.5,271.5C 42.6669,250.174 42.1669,228.841 42,207.5C 41.5,234.165 41.3334,260.831 41.5,287.5C 41.8306,309.007 41.4973,330.34 40.5,351.5C 40.1674,271.332 40.5007,191.332 41.5,111.5 Z"/></g>
<g><path style="opacity:1" fill="#6b89b1" d="M 284.5,239.5 C 286.262,240.262 287.262,241.596 287.5,243.5C 285.738,242.738 284.738,241.404 284.5,239.5 Z"/></g>
<g><path style="opacity:1" fill="#3166a8" d="M 249.5,239.5 C 249.5,239.167 249.5,238.833 249.5,238.5C 251.17,238.751 252.67,239.418 254,240.5C 255.726,239.424 257.559,239.257 259.5,240C 258.464,241.617 257.297,241.784 256,240.5C 255.51,241.793 255.343,243.127 255.5,244.5C 258.694,244.176 259.694,245.342 258.5,248C 259.793,248.49 261.127,248.657 262.5,248.5C 262.296,245.482 261.963,242.482 261.5,239.5C 265.551,240.38 268.217,242.88 269.5,247C 267.423,247.192 265.423,247.692 263.5,248.5C 263.977,249.478 264.643,250.311 265.5,251C 265.216,252.956 265.216,255.123 265.5,257.5C 267.143,257.48 268.476,258.147 269.5,259.5C 270.88,261.862 272.213,264.195 273.5,266.5C 272.167,265.5 270.833,264.5 269.5,263.5C 267.833,261.167 265.833,259.167 263.5,257.5C 263.262,255.596 262.262,254.262 260.5,253.5C 259.581,250.911 257.914,248.911 255.5,247.5C 255.672,246.508 255.338,245.842 254.5,245.5C 253.581,242.911 251.914,240.911 249.5,239.5 Z"/></g>
<g><path style="opacity:1" fill="#5681ac" d="M 124.5,241.5 C 124.573,243.027 123.906,244.027 122.5,244.5C 122.427,242.973 123.094,241.973 124.5,241.5 Z"/></g>
<g><path style="opacity:1" fill="#abbfda" d="M 249.5,239.5 C 251.914,240.911 253.581,242.911 254.5,245.5C 252.086,244.089 250.419,242.089 249.5,239.5 Z"/></g>
<g><path style="opacity:1" fill="#95abc8" d="M 402.5,241.5 C 401.149,245.542 398.815,248.875 395.5,251.5C 397.344,247.808 399.677,244.475 402.5,241.5 Z"/></g>
<g><path style="opacity:1" fill="#b3c6da" d="M 126.5,239.5 C 126.299,243.13 124.632,245.797 121.5,247.5C 121.5,246.833 121.5,246.167 121.5,245.5C 122.167,245.5 122.5,245.167 122.5,244.5C 123.906,244.027 124.573,243.027 124.5,241.5C 124.833,240.5 125.5,239.833 126.5,239.5 Z"/></g>
<g><path style="opacity:1" fill="#6589b4" d="M 287.5,243.5 C 290.5,245.833 293.167,248.5 295.5,251.5C 295.5,251.833 295.5,252.167 295.5,252.5C 294.5,251.833 293.5,251.167 292.5,250.5C 290.42,248.427 288.754,246.093 287.5,243.5 Z"/></g>
<g><path style="opacity:1" fill="#a4b8d1" d="M 98.5,243.5 C 99.1667,243.833 99.8333,244.167 100.5,244.5C 101.11,245.391 101.443,246.391 101.5,247.5C 99.7376,246.738 98.7376,245.404 98.5,243.5 Z"/></g>
<g><path style="opacity:1" fill="#4776ab" d="M 121.5,245.5 C 121.5,246.167 121.5,246.833 121.5,247.5C 120.395,248.6 119.062,249.267 117.5,249.5C 118.234,248.292 118.567,246.959 118.5,245.5C 119.5,245.5 120.5,245.5 121.5,245.5 Z"/></g>
<g><path style="opacity:1" fill="#8b9ec1" d="M 433.5,243.5 C 433.34,245.153 432.674,246.486 431.5,247.5C 431.229,245.62 431.896,244.287 433.5,243.5 Z"/></g>
<g><path style="opacity:1" fill="#4b76ab" d="M 100.5,244.5 C 103.493,244.996 105.826,246.496 107.5,249C 110.482,249.498 113.482,249.665 116.5,249.5C 116.167,250.167 115.833,250.833 115.5,251.5C 112.5,251.5 109.5,251.5 106.5,251.5C 106.027,250.094 105.027,249.427 103.5,249.5C 103.167,248.5 102.5,247.833 101.5,247.5C 101.443,246.391 101.11,245.391 100.5,244.5 Z"/></g>
<g><path style="opacity:1" fill="#2661a8" d="M 427.5,226.5 C 428.167,226.5 428.833,226.5 429.5,226.5C 429.833,227.5 430.5,228.167 431.5,228.5C 431.5,229.167 431.5,229.833 431.5,230.5C 433.533,234.395 432.533,237.061 428.5,238.5C 427.754,239.736 427.421,241.07 427.5,242.5C 428.675,242.281 429.675,242.614 430.5,243.5C 429.754,244.736 429.421,246.07 429.5,247.5C 426.489,247.827 423.989,249.161 422,251.5C 421.335,256.322 420.168,260.988 418.5,265.5C 418.167,266.167 417.833,266.833 417.5,267.5C 416.833,267.833 416.167,268.167 415.5,268.5C 413.61,268.297 412.11,268.963 411,270.5C 409.284,269.448 408.284,270.114 408,272.5C 407.539,269.909 408.372,267.743 410.5,266C 410.167,265.667 409.833,265.333 409.5,265C 414.613,264.554 417.946,261.887 419.5,257C 418.067,254.127 417.567,251.294 418,248.5C 416.989,247.663 415.822,247.33 414.5,247.5C 413.333,250.67 413.999,253.503 416.5,256C 413.138,258.921 409.138,260.421 404.5,260.5C 404.904,266.29 404.404,271.956 403,277.5C 402.147,275.875 401.147,275.542 400,276.5C 399.51,277.793 399.343,279.127 399.5,280.5C 397.266,280.38 395.099,280.713 393,281.5C 390.986,279.984 389.153,278.317 387.5,276.5C 384.722,279.307 381.389,280.14 377.5,279C 376.299,278.097 375.465,276.931 375,275.5C 372.966,277.032 370.799,278.365 368.5,279.5C 367.702,279.043 367.369,278.376 367.5,277.5C 368.29,276.599 369.29,275.932 370.5,275.5C 372.156,274.854 373.823,274.187 375.5,273.5C 376.864,274.043 378.197,274.21 379.5,274C 380.364,271.929 381.697,270.262 383.5,269C 382.748,268.329 382.414,267.496 382.5,266.5C 387.948,262.391 392.281,257.391 395.5,251.5C 398.815,248.875 401.149,245.542 402.5,241.5C 403.338,241.158 403.672,240.492 403.5,239.5C 404.906,239.027 405.573,238.027 405.5,236.5C 406.401,235.71 407.068,234.71 407.5,233.5C 409.543,230.949 411.876,228.449 414.5,226C 418.859,225.466 423.192,225.632 427.5,226.5 Z"/></g>
<g><path style="opacity:1" fill="#becedf" d="M 103.5,249.5 C 105.027,249.427 106.027,250.094 106.5,251.5C 104.973,251.573 103.973,250.906 103.5,249.5 Z"/></g>
<g><path style="opacity:1" fill="#b2c3dc" d="M 121.5,247.5 C 120.513,250.086 118.513,251.419 115.5,251.5C 115.833,250.833 116.167,250.167 116.5,249.5C 116.833,249.5 117.167,249.5 117.5,249.5C 119.062,249.267 120.395,248.6 121.5,247.5 Z"/></g>
<g><path style="opacity:1" fill="#3367a6" d="M 431.5,230.5 C 432.167,230.833 432.833,231.167 433.5,231.5C 434.791,235.399 434.791,239.399 433.5,243.5C 431.896,244.287 431.229,245.62 431.5,247.5C 429.75,248.659 428.75,250.326 428.5,252.5C 427.094,252.973 426.427,253.973 426.5,255.5C 425.068,257.327 423.401,258.994 421.5,260.5C 420.873,261.417 420.539,262.417 420.5,263.5C 420.167,264.5 419.5,265.167 418.5,265.5C 420.168,260.988 421.335,256.322 422,251.5C 423.989,249.161 426.489,247.827 429.5,247.5C 429.421,246.07 429.754,244.736 430.5,243.5C 429.675,242.614 428.675,242.281 427.5,242.5C 427.421,241.07 427.754,239.736 428.5,238.5C 432.533,237.061 433.533,234.395 431.5,230.5 Z"/></g>
<g><path style="opacity:1" fill="#b3c6dd" d="M 255.5,247.5 C 257.914,248.911 259.581,250.911 260.5,253.5C 258.086,252.089 256.419,250.089 255.5,247.5 Z"/></g>
<g><path style="opacity:1" fill="#aec0da" d="M 431.5,247.5 C 431.408,249.848 430.408,251.514 428.5,252.5C 428.75,250.326 429.75,248.659 431.5,247.5 Z"/></g>
<g><path style="opacity:1" fill="#c2cce1" d="M 260.5,253.5 C 262.262,254.262 263.262,255.596 263.5,257.5C 261.738,256.738 260.738,255.404 260.5,253.5 Z"/></g>
<g><path style="opacity:1" fill="#87a1c6" d="M 428.5,252.5 C 428.573,254.027 427.906,255.027 426.5,255.5C 426.427,253.973 427.094,252.973 428.5,252.5 Z"/></g>
<g><path style="opacity:1" fill="#567ca8" d="M 64.5,114.5 C 64.8333,114.5 65.1667,114.5 65.5,114.5C 65.1696,198.571 65.5029,282.571 66.5,366.5C 65.8333,366.5 65.1667,366.5 64.5,366.5C 64.5,282.5 64.5,198.5 64.5,114.5 Z"/></g>
<g><path style="opacity:1" fill="#c1d0e3" d="M 263.5,257.5 C 265.833,259.167 267.833,261.167 269.5,263.5C 269.5,263.833 269.5,264.167 269.5,264.5C 266.757,262.761 264.757,260.427 263.5,257.5 Z"/></g>
<g><path style="opacity:1" fill="#6e92b5" d="M 426.5,255.5 C 425.909,258.359 424.576,260.693 422.5,262.5C 421.833,262.833 421.167,263.167 420.5,263.5C 420.539,262.417 420.873,261.417 421.5,260.5C 423.401,258.994 425.068,257.327 426.5,255.5 Z"/></g>
<g><path style="opacity:1" fill="#99b1d0" d="M 269.5,263.5 C 270.833,264.5 272.167,265.5 273.5,266.5C 273.833,267.5 274.5,268.167 275.5,268.5C 277.013,270.349 278.346,272.349 279.5,274.5C 275.909,271.575 272.575,268.242 269.5,264.5C 269.5,264.167 269.5,263.833 269.5,263.5 Z"/></g>
<g><path style="opacity:1" fill="#a2b5d1" d="M 422.5,262.5 C 421.581,265.089 419.914,267.089 417.5,268.5C 417.5,268.167 417.5,267.833 417.5,267.5C 417.833,266.833 418.167,266.167 418.5,265.5C 419.5,265.167 420.167,264.5 420.5,263.5C 421.167,263.167 421.833,262.833 422.5,262.5 Z"/></g>
<g><path style="opacity:1" fill="#668bb7" d="M 417.5,267.5 C 417.5,267.833 417.5,268.167 417.5,268.5C 416.833,269.5 416.167,270.5 415.5,271.5C 414.833,271.833 414.167,272.167 413.5,272.5C 413.733,270.938 414.4,269.605 415.5,268.5C 416.167,268.167 416.833,267.833 417.5,267.5 Z"/></g>
<g><path style="opacity:1" fill="#6d8eb6" d="M 43.5,107.5 C 43.8333,107.5 44.1667,107.5 44.5,107.5C 44.1667,108.167 43.8333,108.833 43.5,109.5C 42.5,109.833 41.8333,110.5 41.5,111.5C 40.5007,191.332 40.1674,271.332 40.5,351.5C 40.177,365.079 40.5103,378.579 41.5,392C 180.5,392.5 319.5,392.667 458.5,392.5C 458.5,392.833 458.5,393.167 458.5,393.5C 318.833,393.5 179.167,393.5 39.5,393.5C 39.3333,299.166 39.5,204.833 40,110.5C 41.0391,109.29 42.2058,108.29 43.5,107.5 Z"/></g>
<g><path style="opacity:1" fill="#3066a6" d="M 289.5,281.5 C 288.833,281.5 288.167,281.5 287.5,281.5C 286.5,280.833 285.5,280.167 284.5,279.5C 283.167,277.5 281.5,275.833 279.5,274.5C 278.346,272.349 277.013,270.349 275.5,268.5C 276.705,267.328 276.705,265.995 275.5,264.5C 276,264.167 276.5,263.833 277,263.5C 278.3,264.707 279.8,265.374 281.5,265.5C 281.351,266.552 281.517,267.552 282,268.5C 286.124,270.395 287.624,273.395 286.5,277.5C 287.172,279.16 288.172,280.493 289.5,281.5 Z"/></g>
<g><path style="opacity:1" fill="#b6c9de" d="M 415.5,271.5 C 413.833,275.167 411.167,277.833 407.5,279.5C 409.5,277.167 411.5,274.833 413.5,272.5C 414.167,272.167 414.833,271.833 415.5,271.5 Z"/></g>
<g><path style="opacity:1" fill="#b6cce2" d="M 279.5,274.5 C 281.5,275.833 283.167,277.5 284.5,279.5C 281.833,278.833 280.167,277.167 279.5,274.5 Z"/></g>
<g><path style="opacity:1" fill="#2962a7" d="M 415.5,268.5 C 414.4,269.605 413.733,270.938 413.5,272.5C 411.5,274.833 409.5,277.167 407.5,279.5C 404.5,281.833 401.833,284.5 399.5,287.5C 397.251,288.08 395.585,289.413 394.5,291.5C 392.973,291.427 391.973,292.094 391.5,293.5C 389.973,293.427 388.973,294.094 388.5,295.5C 386.973,295.427 385.973,296.094 385.5,297.5C 384.833,297.5 384.167,297.5 383.5,297.5C 383.804,296.85 384.137,296.183 384.5,295.5C 382.955,294.548 381.288,294.215 379.5,294.5C 379.833,292.5 380.167,290.5 380.5,288.5C 378.61,288.297 377.11,288.963 376,290.5C 372.857,288.828 370.357,289.494 368.5,292.5C 367.526,290.257 367.192,287.924 367.5,285.5C 364.712,285.02 362.879,284.02 362,282.5C 358.709,283.773 355.376,284.773 352,285.5C 346.554,284.194 341.054,284.194 335.5,285.5C 339.311,286.738 339.311,287.404 335.5,287.5C 335.762,288.978 335.429,290.311 334.5,291.5C 332.23,293.975 329.563,295.975 326.5,297.5C 324.474,296.63 323.141,295.13 322.5,293C 324.952,292.71 327.285,292.044 329.5,291C 336.791,285.782 336.125,282.282 327.5,280.5C 328.376,279.749 329.376,279.249 330.5,279C 327.821,278.566 325.154,278.732 322.5,279.5C 320.865,279.122 319.365,278.456 318,277.5C 315.888,278.386 313.722,278.386 311.5,277.5C 311.5,276.5 311.5,275.5 311.5,274.5C 310.5,274.5 309.5,274.5 308.5,274.5C 308.17,271.891 306.67,270.224 304,269.5C 300.066,270.925 297.899,269.425 297.5,265C 297.833,264.667 298.167,264.333 298.5,264C 294.219,261.285 294.552,259.451 299.5,258.5C 296.923,256.432 293.923,255.099 290.5,254.5C 291.853,253.476 292.52,252.143 292.5,250.5C 293.5,251.167 294.5,251.833 295.5,252.5C 296.833,253.5 298.167,254.5 299.5,255.5C 300.911,257.914 302.911,259.581 305.5,260.5C 307.569,263.573 310.236,265.906 313.5,267.5C 313.842,268.338 314.508,268.672 315.5,268.5C 316.262,270.262 317.596,271.262 319.5,271.5C 320.262,273.262 321.596,274.262 323.5,274.5C 324.167,274.5 324.833,274.5 325.5,274.5C 327.849,276.341 330.515,277.674 333.5,278.5C 335.438,280.163 337.772,280.829 340.5,280.5C 345.985,281.652 351.651,281.818 357.5,281C 358.416,280.722 359.082,280.222 359.5,279.5C 361.153,279.34 362.486,278.674 363.5,277.5C 364.833,277.5 366.167,277.5 367.5,277.5C 367.369,278.376 367.702,279.043 368.5,279.5C 370.799,278.365 372.966,277.032 375,275.5C 375.465,276.931 376.299,278.097 377.5,279C 381.389,280.14 384.722,279.307 387.5,276.5C 389.153,278.317 390.986,279.984 393,281.5C 395.099,280.713 397.266,280.38 399.5,280.5C 399.343,279.127 399.51,277.793 400,276.5C 401.147,275.542 402.147,275.875 403,277.5C 404.404,271.956 404.904,266.29 404.5,260.5C 409.138,260.421 413.138,258.921 416.5,256C 413.999,253.503 413.333,250.67 414.5,247.5C 415.822,247.33 416.989,247.663 418,248.5C 417.567,251.294 418.067,254.127 419.5,257C 417.946,261.887 414.613,264.554 409.5,265C 409.833,265.333 410.167,265.667 410.5,266C 408.372,267.743 407.539,269.909 408,272.5C 408.284,270.114 409.284,269.448 411,270.5C 412.11,268.963 413.61,268.297 415.5,268.5 Z"/></g>
<g><path style="opacity:1" fill="#87a2c4" d="M 363.5,277.5 C 362.486,278.674 361.153,279.34 359.5,279.5C 358.5,279.5 357.5,279.5 356.5,279.5C 358.515,278.076 360.848,277.41 363.5,277.5 Z"/></g>
<g><path style="opacity:1" fill="#829dc3" d="M 372.5,272.5 C 371.833,273.5 371.167,274.5 370.5,275.5C 369.29,275.932 368.29,276.599 367.5,277.5C 366.167,277.5 364.833,277.5 363.5,277.5C 366.583,276.024 369.583,274.357 372.5,272.5 Z"/></g>
<g><path style="opacity:1" fill="#c9d7e8" d="M 325.5,274.5 C 329.327,274.752 332.66,276.085 335.5,278.5C 334.833,278.5 334.167,278.5 333.5,278.5C 330.515,277.674 327.849,276.341 325.5,274.5 Z"/></g>
<g><path style="opacity:1" fill="#3367a6" d="M 381.5,266.5 C 381.833,266.5 382.167,266.5 382.5,266.5C 382.414,267.496 382.748,268.329 383.5,269C 381.697,270.262 380.364,271.929 379.5,274C 378.197,274.21 376.864,274.043 375.5,273.5C 373.823,274.187 372.156,274.854 370.5,275.5C 371.167,274.5 371.833,273.5 372.5,272.5C 373.391,271.89 374.391,271.557 375.5,271.5C 378.135,270.527 380.135,268.86 381.5,266.5 Z"/></g>
<g><path style="opacity:1" fill="#91aacc" d="M 319.5,271.5 C 321.404,271.738 322.738,272.738 323.5,274.5C 321.596,274.262 320.262,273.262 319.5,271.5 Z"/></g>
<g><path style="opacity:1" fill="#b8cade" d="M 315.5,268.5 C 317.404,268.738 318.738,269.738 319.5,271.5C 317.596,271.262 316.262,270.262 315.5,268.5 Z"/></g>
<g><path style="opacity:1" fill="#7794c0" d="M 381.5,266.5 C 380.135,268.86 378.135,270.527 375.5,271.5C 376.891,269.11 378.891,267.443 381.5,266.5 Z"/></g>
<g><path style="opacity:1" fill="#b9cde0" d="M 305.5,260.5 C 308.764,262.094 311.431,264.427 313.5,267.5C 310.236,265.906 307.569,263.573 305.5,260.5 Z"/></g>
<g><path style="opacity:1" fill="#7a98be" d="M 395.5,251.5 C 392.281,257.391 387.948,262.391 382.5,266.5C 382.167,266.5 381.833,266.5 381.5,266.5C 386.195,261.474 390.861,256.474 395.5,251.5 Z"/></g>
<g><path style="opacity:1" fill="#b8c9e0" d="M 299.5,255.5 C 302.089,256.419 304.089,258.086 305.5,260.5C 302.911,259.581 300.911,257.914 299.5,255.5 Z"/></g>
<g><path style="opacity:1" fill="#d4e0ed" d="M 295.5,252.5 C 295.5,252.167 295.5,251.833 295.5,251.5C 298.179,251.525 299.512,252.858 299.5,255.5C 298.167,254.5 296.833,253.5 295.5,252.5 Z"/></g>
<g><path style="opacity:1" fill="#8da6c4" d="M 333.5,278.5 C 334.167,278.5 334.833,278.5 335.5,278.5C 341.775,279.418 348.108,279.751 354.5,279.5C 350.03,280.486 345.363,280.819 340.5,280.5C 337.772,280.829 335.438,280.163 333.5,278.5 Z"/></g>
<g><path style="opacity:1" fill="#5079ac" d="M 354.5,279.5 C 355.167,279.5 355.833,279.5 356.5,279.5C 357.5,279.5 358.5,279.5 359.5,279.5C 359.082,280.222 358.416,280.722 357.5,281C 351.651,281.818 345.985,281.652 340.5,280.5C 345.363,280.819 350.03,280.486 354.5,279.5 Z"/></g>
<g><path style="opacity:1" fill="#7697c0" d="M 287.5,281.5 C 288.167,281.5 288.833,281.5 289.5,281.5C 290.833,283.167 292.167,284.833 293.5,286.5C 290.911,285.581 288.911,283.914 287.5,281.5 Z"/></g>
<g><path style="opacity:1" fill="#aabfd6" d="M 407.5,279.5 C 405.833,283.167 403.167,285.833 399.5,287.5C 401.833,284.5 404.5,281.833 407.5,279.5 Z"/></g>
<g><path style="opacity:1" fill="#6185b6" d="M 295.5,287.5 C 297.749,288.08 299.415,289.413 300.5,291.5C 298.251,290.92 296.585,289.587 295.5,287.5 Z"/></g>
<g><path style="opacity:1" fill="#aec1d7" d="M 399.5,287.5 C 398.415,289.587 396.749,290.92 394.5,291.5C 395.585,289.413 397.251,288.08 399.5,287.5 Z"/></g>
<g><path style="opacity:1" fill="#4671a9" d="M 300.5,291.5 C 303.189,292.038 305.856,292.705 308.5,293.5C 309.386,294.325 309.719,295.325 309.5,296.5C 308.167,296.167 306.833,295.833 305.5,295.5C 305.027,294.094 304.027,293.427 302.5,293.5C 301.5,293.167 300.833,292.5 300.5,291.5 Z"/></g>
<g><path style="opacity:1" fill="#a4b9d2" d="M 394.5,291.5 C 394.027,292.906 393.027,293.573 391.5,293.5C 391.973,292.094 392.973,291.427 394.5,291.5 Z"/></g>
<g><path style="opacity:1" fill="#a1b5d2" d="M 302.5,293.5 C 304.027,293.427 305.027,294.094 305.5,295.5C 303.973,295.573 302.973,294.906 302.5,293.5 Z"/></g>
<g><path style="opacity:1" fill="#98b3cf" d="M 391.5,293.5 C 391.027,294.906 390.027,295.573 388.5,295.5C 388.973,294.094 389.973,293.427 391.5,293.5 Z"/></g>
<g><path style="opacity:1" fill="#a0b5d0" d="M 388.5,295.5 C 388.027,296.906 387.027,297.573 385.5,297.5C 385.973,296.094 386.973,295.427 388.5,295.5 Z"/></g>
<g><path style="opacity:1" fill="#c6d5e5" d="M 305.5,295.5 C 306.833,295.833 308.167,296.167 309.5,296.5C 309.5,297.167 309.5,297.833 309.5,298.5C 307.381,298.532 306.048,297.532 305.5,295.5 Z"/></g>
<g><path style="opacity:1" fill="#afc3da" d="M 311.5,298.5 C 312.167,298.5 312.833,298.5 313.5,298.5C 313.833,299.167 314.167,299.833 314.5,300.5C 312.973,300.573 311.973,299.906 311.5,298.5 Z"/></g>
<g><path style="opacity:1" fill="#577eae" d="M 313.5,298.5 C 316.105,298.621 318.105,299.621 319.5,301.5C 318.5,301.5 317.5,301.5 316.5,301.5C 316.158,300.662 315.492,300.328 314.5,300.5C 314.167,299.833 313.833,299.167 313.5,298.5 Z"/></g>
<g><path style="opacity:1" fill="#ccd8e6" d="M 383.5,297.5 C 384.167,297.5 384.833,297.5 385.5,297.5C 384.191,300.451 381.857,301.784 378.5,301.5C 379.984,299.926 381.651,298.593 383.5,297.5 Z"/></g>
<g><path style="opacity:1" fill="#4c75ab" d="M 376.5,301.5 C 375.329,302.345 373.995,303.011 372.5,303.5C 371.833,303.5 371.167,303.5 370.5,303.5C 371.918,301.692 373.918,301.025 376.5,301.5 Z"/></g>
<g><path style="opacity:1" fill="#c0d3e5" d="M 316.5,301.5 C 317.5,301.5 318.5,301.5 319.5,301.5C 319.833,302.167 320.167,302.833 320.5,303.5C 318.847,303.34 317.514,302.674 316.5,301.5 Z"/></g>
<g><path style="opacity:1" fill="#7b9ac0" d="M 319.5,301.5 C 321.027,301.427 322.027,302.094 322.5,303.5C 321.833,303.5 321.167,303.5 320.5,303.5C 320.167,302.833 319.833,302.167 319.5,301.5 Z"/></g>
<g><path style="opacity:1" fill="#cfdeeb" d="M 376.5,301.5 C 377.167,301.5 377.833,301.5 378.5,301.5C 377.097,302.931 375.431,304.098 373.5,305C 372.207,305.49 370.873,305.657 369.5,305.5C 370.5,304.833 371.5,304.167 372.5,303.5C 373.995,303.011 375.329,302.345 376.5,301.5 Z"/></g>
<g><path style="opacity:1" fill="#c8d6e7" d="M 322.5,303.5 C 323.167,303.5 323.833,303.5 324.5,303.5C 325.5,304.167 326.5,304.833 327.5,305.5C 325.219,305.923 323.552,305.256 322.5,303.5 Z"/></g>
<g><path style="opacity:1" fill="#5a81b3" d="M 324.5,303.5 C 327.228,303.171 329.562,303.837 331.5,305.5C 330.167,305.5 328.833,305.5 327.5,305.5C 326.5,304.833 325.5,304.167 324.5,303.5 Z"/></g>
<g><path style="opacity:1" fill="#829dbf" d="M 370.5,303.5 C 371.167,303.5 371.833,303.5 372.5,303.5C 371.5,304.167 370.5,304.833 369.5,305.5C 367.435,305.517 365.435,305.85 363.5,306.5C 362.167,306.5 360.833,306.5 359.5,306.5C 361.167,305.833 362.833,305.167 364.5,304.5C 366.565,304.483 368.565,304.15 370.5,303.5 Z"/></g>
<g><path style="opacity:1" fill="#4875af" d="M 364.5,304.5 C 362.833,305.167 361.167,305.833 359.5,306.5C 352.352,307.492 345.019,307.825 337.5,307.5C 335.302,307.125 333.302,306.458 331.5,305.5C 342.516,305.583 353.516,305.249 364.5,304.5 Z"/></g>
<g><path style="opacity:1" fill="#bdcde1" d="M 359.5,306.5 C 360.833,306.5 362.167,306.5 363.5,306.5C 363.082,307.222 362.416,307.722 361.5,308C 353.323,308.823 345.323,308.656 337.5,307.5C 345.019,307.825 352.352,307.492 359.5,306.5 Z"/></g>
<g><path style="opacity:1" fill="#bfcfe1" d="M 239.5,342.5 C 230.318,342.173 221.318,342.507 212.5,343.5C 211.833,350.833 211.167,358.167 210.5,365.5C 210.185,357.58 210.518,349.747 211.5,342C 221.009,341.176 230.343,341.342 239.5,342.5 Z"/></g>
<g><path style="opacity:1" fill="#6c8fb9" d="M 212.5,343.5 C 221.318,342.507 230.318,342.173 239.5,342.5C 239.5,342.833 239.5,343.167 239.5,343.5C 239.5,350.833 239.5,358.167 239.5,365.5C 238.833,358.167 238.167,350.833 237.5,343.5C 230.167,343.5 222.833,343.5 215.5,343.5C 214.5,343.5 213.5,343.5 212.5,343.5 Z"/></g>
<g><path style="opacity:1" fill="#ccd9e8" d="M 156.5,342.5 C 147.651,342.174 138.984,342.507 130.5,343.5C 129.833,350.833 129.167,358.167 128.5,365.5C 128.185,357.58 128.518,349.747 129.5,342C 138.676,341.176 147.676,341.343 156.5,342.5 Z"/></g>
<g><path style="opacity:1" fill="#6e90b7" d="M 375.5,343.5 C 376.132,351.573 375.465,359.24 373.5,366.5C 373.5,366.167 373.5,365.833 373.5,365.5C 374.167,358.167 374.833,350.833 375.5,343.5 Z"/></g>
<g><path style="opacity:1" fill="#7694ba" d="M 375.5,343.5 C 384.318,342.507 393.318,342.173 402.5,342.5C 403.492,349.982 403.825,357.648 403.5,365.5C 403.167,365.5 402.833,365.5 402.5,365.5C 401.517,361.702 401.183,357.702 401.5,353.5C 401.5,350.167 401.5,346.833 401.5,343.5C 392.833,343.5 384.167,343.5 375.5,343.5 Z"/></g>
<g><path style="opacity:1" fill="#2f65a7" d="M 458.5,391.5 C 458.5,391.833 458.5,392.167 458.5,392.5C 319.5,392.667 180.5,392.5 41.5,392C 40.5103,378.579 40.177,365.079 40.5,351.5C 41.4973,330.34 41.8306,309.007 41.5,287.5C 43.0682,285.189 43.9016,282.522 44,279.5C 44.4242,306.217 44.5908,332.884 44.5,359.5C 45.3184,356.893 45.8184,354.226 46,351.5C 46.3333,314.167 46.6667,276.833 47,239.5C 47.4997,247.827 47.6664,256.16 47.5,264.5C 52.8333,264.833 52.8333,265.167 47.5,265.5C 47.9499,293.973 47.9499,322.307 47.5,350.5C 52.8333,350.833 52.8333,351.167 47.5,351.5C 47.6665,362.172 47.4998,372.839 47,383.5C 46.8295,378.136 46.3295,372.802 45.5,367.5C 44.5023,375.472 44.169,383.472 44.5,391.5C 182.5,391.5 320.5,391.5 458.5,391.5 Z"/></g>
<g><path style="opacity:1" fill="#587eb0" d="M 321.5,343.5 C 321.5,351.167 321.5,358.833 321.5,366.5C 319.537,359.576 318.87,352.243 319.5,344.5C 311.167,344.5 302.833,344.5 294.5,344.5C 294.188,351.422 294.521,358.256 295.5,365C 294.956,365.717 294.289,366.217 293.5,366.5C 293.167,366.5 292.833,366.5 292.5,366.5C 293.467,358.586 293.801,350.586 293.5,342.5C 302.886,342.22 312.22,342.553 321.5,343.5 Z"/></g>
<g><path style="opacity:1" fill="#2561a9" d="M 63.5,113.5 C 64.1667,113.5 64.5,113.833 64.5,114.5C 64.5,198.5 64.5,282.5 64.5,366.5C 65.1721,368.668 66.6721,370.001 69,370.5C 88.8563,369.184 108.69,369.184 128.5,370.5C 130.118,368.684 132.118,367.351 134.5,366.5C 131.833,365.167 131.833,363.833 134.5,362.5C 131.793,356.532 130.793,350.199 131.5,343.5C 132.833,343.5 134.167,343.5 135.5,343.5C 138.701,345.26 142.367,346.094 146.5,346C 149.167,346.667 149.167,347.333 146.5,348C 147.399,349.236 148.566,350.07 150,350.5C 151.597,349.115 153.43,348.449 155.5,348.5C 155.5,349.5 155.5,350.5 155.5,351.5C 152.221,352.031 150.887,354.031 151.5,357.5C 150.5,357.5 149.5,357.5 148.5,357.5C 147.888,361.876 149.054,362.543 152,359.5C 154.802,361.923 154.802,364.59 152,367.5C 151.333,368.833 151.333,370.167 152,371.5C 153.688,369.955 155.688,368.955 158,368.5C 175.118,369.187 192.284,369.854 209.5,370.5C 211.029,370.471 212.196,369.804 213,368.5C 213.186,366.1 213.686,363.766 214.5,361.5C 216.8,363.831 218.466,363.664 219.5,361C 219.167,360.667 218.833,360.333 218.5,360C 219.793,359.51 221.127,359.343 222.5,359.5C 223.092,362.127 223.425,364.794 223.5,367.5C 224.833,367.5 226.167,367.5 227.5,367.5C 227.5,364.833 227.5,362.167 227.5,359.5C 226.167,359.5 224.833,359.5 223.5,359.5C 223.5,358.167 223.5,356.833 223.5,355.5C 220.266,356.26 217.099,357.26 214,358.5C 212.977,353.202 213.477,348.202 215.5,343.5C 222.833,343.5 230.167,343.5 237.5,343.5C 236.884,351.939 237.551,360.106 239.5,368C 248.5,368.167 257.5,368.333 266.5,368.5C 275.859,368.498 284.859,367.832 293.5,366.5C 294.289,366.217 294.956,365.717 295.5,365C 294.521,358.256 294.188,351.422 294.5,344.5C 302.833,344.5 311.167,344.5 319.5,344.5C 318.87,352.243 319.537,359.576 321.5,366.5C 321.953,367.458 322.619,368.292 323.5,369C 340.843,369.833 358.176,369.666 375.5,368.5C 376.863,367.107 377.696,365.441 378,363.5C 378.667,362.167 379.333,362.167 380,363.5C 380.273,360.607 381.107,357.94 382.5,355.5C 382.176,353.431 381.342,353.098 380,354.5C 379.667,356.167 379.333,357.833 379,359.5C 377.663,354.835 377.497,350.168 378.5,345.5C 385.418,345.719 392.418,345.719 399.5,345.5C 399.335,348.518 399.502,351.518 400,354.5C 400.383,353.944 400.883,353.611 401.5,353.5C 401.183,357.702 401.517,361.702 402.5,365.5C 402.414,366.496 402.748,367.329 403.5,368C 422.21,368.192 440.877,368.692 459.5,369.5C 460.167,369.833 460.833,370.167 461.5,370.5C 463.95,375.53 464.95,380.864 464.5,386.5C 462.81,386.856 461.81,387.856 461.5,389.5C 461.167,390.167 460.833,390.833 460.5,391.5C 459.833,391.5 459.167,391.5 458.5,391.5C 320.5,391.5 182.5,391.5 44.5,391.5C 44.169,383.472 44.5023,375.472 45.5,367.5C 46.3295,372.802 46.8295,378.136 47,383.5C 47.4998,372.839 47.6665,362.172 47.5,351.5C 52.8333,351.167 52.8333,350.833 47.5,350.5C 47.9499,322.307 47.9499,293.973 47.5,265.5C 52.8333,265.167 52.8333,264.833 47.5,264.5C 47.6664,256.16 47.4997,247.827 47,239.5C 46.6667,276.833 46.3333,314.167 46,351.5C 45.8184,354.226 45.3184,356.893 44.5,359.5C 44.5908,332.884 44.4242,306.217 44,279.5C 43.9016,282.522 43.0682,285.189 41.5,287.5C 41.3334,260.831 41.5,234.165 42,207.5C 42.1669,228.841 42.6669,250.174 43.5,271.5C 43.8333,267.167 44.1667,262.833 44.5,258.5C 44.076,231.877 44.076,205.211 44.5,178.5C 44.6622,157.021 44.1622,135.687 43,114.5C 42.6667,142.833 42.3333,171.167 42,199.5C 41.5,170.169 41.3334,140.835 41.5,111.5C 41.8333,110.5 42.5,109.833 43.5,109.5C 48.1138,108.45 52.7804,108.283 57.5,109C 59.3956,110.741 61.3956,112.241 63.5,113.5 Z"/></g>
<g><path style="opacity:1" fill="#cedaea" d="M 402.5,342.5 C 393.318,342.173 384.318,342.507 375.5,343.5C 374.833,350.833 374.167,358.167 373.5,365.5C 373.185,357.58 373.518,349.747 374.5,342C 384.009,341.176 393.343,341.342 402.5,342.5 Z"/></g>
<g><path style="opacity:1" fill="#ccd9ea" d="M 156.5,343.5 C 156.5,343.167 156.5,342.833 156.5,342.5C 158.177,349.677 159.177,357.177 159.5,365C 176.497,365.5 193.497,365.667 210.5,365.5C 210.5,365.833 210.5,366.167 210.5,366.5C 193.163,366.667 175.83,366.5 158.5,366C 157.848,358.401 157.182,350.901 156.5,343.5 Z"/></g>
<g><path style="opacity:1" fill="#cbd7e8" d="M 321.5,343.5 C 312.22,342.553 302.886,342.22 293.5,342.5C 293.801,350.586 293.467,358.586 292.5,366.5C 274.659,366.83 256.992,366.497 239.5,365.5C 239.5,358.167 239.5,350.833 239.5,343.5C 240.492,350.648 240.825,357.981 240.5,365.5C 257.5,365.5 274.5,365.5 291.5,365.5C 291.185,357.58 291.518,349.747 292.5,342C 301.833,341.333 311.167,341.333 320.5,342C 321.056,342.383 321.389,342.883 321.5,343.5 Z"/></g>
<g><path style="opacity:1" fill="#d4e0ee" d="M 321.5,343.5 C 322.492,350.648 322.825,357.981 322.5,365.5C 339.5,365.5 356.5,365.5 373.5,365.5C 373.5,365.833 373.5,366.167 373.5,366.5C 356.167,366.5 338.833,366.5 321.5,366.5C 321.5,358.833 321.5,351.167 321.5,343.5 Z"/></g>
<g><path style="opacity:1" fill="#7594bb" d="M 130.5,343.5 C 130.815,351.42 130.482,359.253 129.5,367C 108.329,367.829 87.3293,367.663 66.5,366.5C 87.3401,366.831 108.007,366.497 128.5,365.5C 129.167,358.167 129.833,350.833 130.5,343.5 Z"/></g>
<g><path style="opacity:1" fill="#4c75ad" d="M 237.5,343.5 C 238.167,350.833 238.833,358.167 239.5,365.5C 256.992,366.497 274.659,366.83 292.5,366.5C 292.833,366.5 293.167,366.5 293.5,366.5C 284.859,367.832 275.859,368.498 266.5,368.5C 257.5,368.333 248.5,368.167 239.5,368C 237.551,360.106 236.884,351.939 237.5,343.5 Z"/></g>
<g><path style="opacity:1" fill="#5179b0" d="M 402.5,365.5 C 402.833,365.5 403.167,365.5 403.5,365.5C 420.662,366.332 437.995,366.832 455.5,367C 456.901,367.41 458.234,367.91 459.5,368.5C 459.5,368.833 459.5,369.167 459.5,369.5C 440.877,368.692 422.21,368.192 403.5,368C 402.748,367.329 402.414,366.496 402.5,365.5 Z"/></g>
<g><path style="opacity:1" fill="#3969a8" d="M 156.5,342.5 C 156.5,342.833 156.5,343.167 156.5,343.5C 149.5,343.5 142.5,343.5 135.5,343.5C 134.167,343.5 132.833,343.5 131.5,343.5C 130.793,350.199 131.793,356.532 134.5,362.5C 131.833,363.833 131.833,365.167 134.5,366.5C 132.118,367.351 130.118,368.684 128.5,370.5C 108.69,369.184 88.8563,369.184 69,370.5C 66.6721,370.001 65.1721,368.668 64.5,366.5C 65.1667,366.5 65.8333,366.5 66.5,366.5C 87.3293,367.663 108.329,367.829 129.5,367C 130.482,359.253 130.815,351.42 130.5,343.5C 138.984,342.507 147.651,342.174 156.5,342.5 Z"/></g>
<g><path style="opacity:1" fill="#3769a8" d="M 135.5,343.5 C 142.5,343.5 149.5,343.5 156.5,343.5C 157.182,350.901 157.848,358.401 158.5,366C 175.83,366.5 193.163,366.667 210.5,366.5C 212.465,359.24 213.132,351.573 212.5,343.5C 213.5,343.5 214.5,343.5 215.5,343.5C 213.477,348.202 212.977,353.202 214,358.5C 217.099,357.26 220.266,356.26 223.5,355.5C 223.5,356.833 223.5,358.167 223.5,359.5C 224.833,359.5 226.167,359.5 227.5,359.5C 227.5,362.167 227.5,364.833 227.5,367.5C 226.167,367.5 224.833,367.5 223.5,367.5C 223.425,364.794 223.092,362.127 222.5,359.5C 221.127,359.343 219.793,359.51 218.5,360C 218.833,360.333 219.167,360.667 219.5,361C 218.466,363.664 216.8,363.831 214.5,361.5C 213.686,363.766 213.186,366.1 213,368.5C 212.196,369.804 211.029,370.471 209.5,370.5C 192.284,369.854 175.118,369.187 158,368.5C 155.688,368.955 153.688,369.955 152,371.5C 151.333,370.167 151.333,368.833 152,367.5C 154.802,364.59 154.802,361.923 152,359.5C 149.054,362.543 147.888,361.876 148.5,357.5C 149.5,357.5 150.5,357.5 151.5,357.5C 150.887,354.031 152.221,352.031 155.5,351.5C 155.5,350.5 155.5,349.5 155.5,348.5C 153.43,348.449 151.597,349.115 150,350.5C 148.566,350.07 147.399,349.236 146.5,348C 149.167,347.333 149.167,346.667 146.5,346C 142.367,346.094 138.701,345.26 135.5,343.5 Z"/></g>
<g><path style="opacity:1" fill="#5c82b0" d="M 212.5,343.5 C 213.132,351.573 212.465,359.24 210.5,366.5C 210.5,366.167 210.5,365.833 210.5,365.5C 211.167,358.167 211.833,350.833 212.5,343.5 Z"/></g>
<g><path style="opacity:1" fill="#3b6aa8" d="M 375.5,343.5 C 384.167,343.5 392.833,343.5 401.5,343.5C 401.5,346.833 401.5,350.167 401.5,353.5C 400.883,353.611 400.383,353.944 400,354.5C 399.502,351.518 399.335,348.518 399.5,345.5C 392.418,345.719 385.418,345.719 378.5,345.5C 377.497,350.168 377.663,354.835 379,359.5C 379.333,357.833 379.667,356.167 380,354.5C 381.342,353.098 382.176,353.431 382.5,355.5C 381.107,357.94 380.273,360.607 380,363.5C 379.333,362.167 378.667,362.167 378,363.5C 377.696,365.441 376.863,367.107 375.5,368.5C 358.176,369.666 340.843,369.833 323.5,369C 322.619,368.292 321.953,367.458 321.5,366.5C 338.833,366.5 356.167,366.5 373.5,366.5C 375.465,359.24 376.132,351.573 375.5,343.5 Z"/></g>
<g><path style="opacity:1" fill="#a4b7d2" d="M 459.5,369.5 C 459.5,369.167 459.5,368.833 459.5,368.5C 461.027,368.427 462.027,369.094 462.5,370.5C 462.167,370.5 461.833,370.5 461.5,370.5C 460.833,370.167 460.167,369.833 459.5,369.5 Z"/></g>
<g><path style="opacity:1" fill="#587ab0" d="M 461.5,370.5 C 461.833,370.5 462.167,370.5 462.5,370.5C 466.947,375.405 467.613,380.739 464.5,386.5C 464.95,380.864 463.95,375.53 461.5,370.5 Z"/></g>
<g><path style="opacity:1" fill="#597eaf" d="M 464.5,386.5 C 464.443,387.609 464.11,388.609 463.5,389.5C 462.833,389.5 462.167,389.5 461.5,389.5C 461.81,387.856 462.81,386.856 464.5,386.5 Z"/></g>
<g><path style="opacity:1" fill="#a7bbd0" d="M 461.5,389.5 C 462.167,389.5 462.833,389.5 463.5,389.5C 463.027,390.906 462.027,391.573 460.5,391.5C 460.833,390.833 461.167,390.167 461.5,389.5 Z"/></g>
<g><path style="opacity:1" fill="#bfd0e2" d="M 458.5,391.5 C 459.167,391.5 459.833,391.5 460.5,391.5C 460.5,392.833 459.833,393.5 458.5,393.5C 458.5,393.167 458.5,392.833 458.5,392.5C 458.5,392.167 458.5,391.833 458.5,391.5 Z"/></g>
</svg>
